<svg xmlns="http://www.w3.org/2000/svg" width="512" height="512"><path d="M256 406c-30.6 0-62.2-7.6-94-22.5-24.9-11.7-50-27.9-74.6-48.2C45.9 301 20.3 267 19.2 265.6a15.9 15.9 0 010-19.2c1.1-1.4 26.7-35.4 68.2-69.7 24.6-20.3 49.7-36.5 74.6-48.2 31.8-14.9 63.4-22.5 94-22.5s62.2 7.6 94 22.5c24.9 11.7 50 27.9 74.6 48.2 41.5 34.3 67.2 68.3 68.2 69.7a15.9 15.9 0 010 19.2c-1.1 1.4-26.7 35.4-68.2 69.7-24.6 20.3-49.7 36.5-74.6 48.2-31.8 14.9-63.4 22.5-94 22.5zM52.6 256c25.1 29.7 108 118 203.4 118 95.6 0 178.3-88.3 203.4-118-25.1-29.7-108-118-203.4-118-95.6 0-178.3 88.3-203.4 118z"/><path d="M256 328c-39.7 0-72-32.3-72-72s32.3-72 72-72 72 32.3 72 72-32.3 72-72 72zm0-112c-22.1 0-40 17.9-40 40s17.9 40 40 40 40-17.9 40-40-17.9-40-40-40z"/></svg>