<svg xmlns="http://www.w3.org/2000/svg" width="512" height="512" fill-rule="evenodd" clip-rule="evenodd" image-rendering="optimizeQuality" shape-rendering="geometricPrecision" text-rendering="geometricPrecision"><path d="M496.102 424.625H15.9c-8.761 0-15.89-7.128-15.89-15.89V98.879c0-8.763 7.127-15.89 15.89-15.89h106.694c2.763 0 5 2.237 5 5a5 5 0 01-5 5H15.9a5.896 5.896 0 00-5.889 5.89v309.857a5.897 5.897 0 005.889 5.89h480.202a5.896 5.896 0 005.889-5.89V98.88a5.896 5.896 0 00-5.889-5.89H389.408a5 5 0 01-5-5c0-2.763 2.237-5 5-5h106.694c8.76 0 15.888 7.128 15.888 15.89v309.857c0 8.761-7.128 15.89-15.888 15.89z"/><path d="M305.375 483.876h-98.749a5 5 0 01-5-5v-59.251a5 5 0 015-5h98.749a5 5 0 015 5v59.251a5 5 0 01-5 5zm-93.75-10h88.75v-49.25h-88.75v49.25zM506.99 369.49H5.012a5 5 0 110-10H506.99c2.763 0 5 2.238 5 5s-2.237 5-5 5zm0-236.179H389.409c-2.763 0-5-2.237-5-5a5 5 0 015-5H506.99a5 5 0 015 5c0 2.763-2.237 5-5 5zm-384.397 0H5.012a4.999 4.999 0 110-10h117.581a5 5 0 110 10z"/><path d="M364.022 483.876H147.98c-2.763 0-5-2.238-5-5s2.237-5 5-5h216.042c2.763 0 5 2.238 5 5s-2.237 5-5 5zM53.668 406.915c-8.293 0-15.041-6.748-15.041-15.041 0-8.294 6.748-15.042 15.041-15.042 8.294 0 15.042 6.748 15.042 15.042 0 8.293-6.748 15.041-15.042 15.041zm0-20.084a5.048 5.048 0 00-5.042 5.043 5.048 5.048 0 005.042 5.04 5.048 5.048 0 005.042-5.04 5.049 5.049 0 00-5.042-5.043zm35.373 20.084c-8.294 0-15.041-6.748-15.041-15.041 0-8.294 6.747-15.042 15.041-15.042 8.295 0 15.043 6.748 15.043 15.042 0 8.293-6.748 15.041-15.043 15.041zm0-20.084a5.048 5.048 0 00-5.04 5.043 5.047 5.047 0 005.04 5.04 5.048 5.048 0 005.044-5.04 5.048 5.048 0 00-5.044-5.043zm35.377 20.084c-8.294 0-15.041-6.748-15.041-15.041 0-8.294 6.747-15.042 15.041-15.042s15.041 6.748 15.041 15.042c0 8.293-6.747 15.041-15.041 15.041zm0-20.084a5.048 5.048 0 00-5.042 5.043 5.048 5.048 0 005.042 5.04 5.047 5.047 0 005.041-5.04 5.048 5.048 0 00-5.041-5.043zm254.1-126.498H133.482c-8.761 0-15.89-7.127-15.89-15.888V44.014c0-8.763 7.127-15.89 15.89-15.89h245.036c8.761 0 15.888 7.128 15.888 15.89v200.43c.001 8.763-7.127 15.889-15.888 15.889zM133.482 38.124a5.896 5.896 0 00-5.889 5.889v200.433a5.896 5.896 0 005.889 5.889h245.036a5.896 5.896 0 005.889-5.889V44.013a5.896 5.896 0 00-5.889-5.89H133.482v.001z"/><path d="M256 186.725c-23.43 0-42.494-19.063-42.494-42.495s19.062-42.496 42.494-42.496 42.494 19.063 42.494 42.496c0 23.432-19.062 42.495-42.494 42.495zm0-74.99c-17.917 0-32.495 14.578-32.495 32.496 0 17.918 14.578 32.496 32.495 32.496 17.917 0 32.495-14.577 32.495-32.496 0-17.918-14.578-32.497-32.495-32.497z"/><path d="M244.595 219.185a10.43 10.43 0 01-3.405-.572l-19.396-6.692c-5.44-1.874-8.339-7.83-6.462-13.272l2.378-6.893a60.756 60.756 0 01-4.271-3.778l-6.552 3.191a10.361 10.361 0 01-4.566 1.055c-3.965 0-7.651-2.303-9.389-5.869l-8.983-18.449a10.367 10.367 0 01-.482-7.975 10.368 10.368 0 015.298-5.98l6.55-3.191a60.853 60.853 0 01-.34-5.692l-6.894-2.379c-5.439-1.875-8.34-7.83-6.461-13.27l6.69-19.397a10.444 10.444 0 0113.273-6.463l6.891 2.38a60.826 60.826 0 013.78-4.273l-3.19-6.553a10.364 10.364 0 01-.483-7.973 10.371 10.371 0 015.3-5.98l18.442-8.983a10.346 10.346 0 014.568-1.054c3.966 0 7.652 2.303 9.388 5.867l3.19 6.553a60.597 60.597 0 015.692-.341l2.378-6.892a10.446 10.446 0 019.87-7.036c1.157 0 2.302.193 3.402.572l19.395 6.694a10.37 10.37 0 015.98 5.295 10.363 10.363 0 01.483 7.975l-2.378 6.894a61.328 61.328 0 014.271 3.779l6.55-3.19a10.349 10.349 0 014.567-1.054c3.967 0 7.653 2.303 9.39 5.869l8.982 18.448c2.52 5.174.359 11.434-4.814 13.954l-6.55 3.19a62.05 62.05 0 01.34 5.693l6.892 2.378c2.635.91 4.759 2.79 5.98 5.296a10.368 10.368 0 01.482 7.977l-6.692 19.395a10.439 10.439 0 01-13.27 6.463l-6.894-2.379a61.113 61.113 0 01-3.778 4.273l3.189 6.55a10.354 10.354 0 01.483 7.974 10.361 10.361 0 01-5.296 5.98l-18.448 8.984a10.342 10.342 0 01-4.565 1.054 10.507 10.507 0 01-9.39-5.87l-3.189-6.55c-1.888.204-3.79.317-5.693.342l-2.377 6.891a10.445 10.445 0 01-9.866 7.034zm-30.086-42.292a5 5 0 013.707 1.643 50.75 50.75 0 008.292 7.338 5 5 0 011.837 5.712l-3.56 10.323a.44.44 0 00.27.559l19.396 6.69a.44.44 0 00.556-.273l3.561-10.32a5 5 0 014.97-3.362c3.714.18 7.445-.044 11.054-.664a5.005 5.005 0 015.341 2.738l4.779 9.813a.448.448 0 00.398.249.423.423 0 00.188-.047l18.448-8.984a.42.42 0 00.222-.25.425.425 0 00-.022-.335l-4.778-9.813a5 5 0 011.138-5.893 50.791 50.791 0 007.337-8.294 5.002 5.002 0 015.714-1.838l10.324 3.562a.44.44 0 00.555-.27l6.693-19.397a.422.422 0 00-.02-.335.42.42 0 00-.25-.222l-10.325-3.563a4.997 4.997 0 01-3.364-4.971 50.682 50.682 0 00-.661-11.053 4.997 4.997 0 012.738-5.341l9.812-4.779a.437.437 0 00.202-.586l-8.982-18.446a.446.446 0 00-.4-.247.423.423 0 00-.188.045l-9.81 4.777a5 5 0 01-5.893-1.136 50.922 50.922 0 00-8.295-7.34 5 5 0 01-1.838-5.71l3.561-10.324a.417.417 0 00-.02-.334.421.421 0 00-.251-.223l-19.395-6.694a.444.444 0 00-.56.274l-3.562 10.322a5.018 5.018 0 01-4.97 3.363 50.741 50.741 0 00-11.052.663 5 5 0 01-5.343-2.738l-4.777-9.813a.445.445 0 00-.398-.247.418.418 0 00-.187.045l-18.446 8.983a.426.426 0 00-.224.25.421.421 0 00.02.333l4.779 9.816a5 5 0 01-1.139 5.895 50.788 50.788 0 00-7.338 8.291 4.997 4.997 0 01-5.712 1.838l-10.323-3.561a.41.41 0 00-.142-.026.444.444 0 00-.415.299l-6.692 19.394a.44.44 0 00.271.557l10.324 3.563a5 5 0 013.363 4.97c-.18 3.721.041 7.44.664 11.05a5 5 0 01-2.74 5.344l-9.812 4.779a.426.426 0 00-.222.25.423.423 0 00.02.337l8.983 18.446a.445.445 0 00.4.247.425.425 0 00.187-.045l9.813-4.778c.7-.34 1.448-.506 2.189-.506z"/></svg>